<svg version="1.1" xmlns="http://www.w3.org/2000/svg" style="display: block;" viewBox="0 0 1400 1400" width="350" height="350" preserveAspectRatio="none">
<defs>
	<linearGradient id="Gradient1" gradientUnits="userSpaceOnUse" x1="1095.14" y1="416.49" x2="1255.51" y2="400.365">
		<stop class="stop0" offset="0" stop-opacity="1" stop-color="rgb(255,249,193)"/>
		<stop class="stop1" offset="1" stop-opacity="1" stop-color="rgb(251,252,255)"/>
	</linearGradient>
	<linearGradient id="Gradient2" gradientUnits="userSpaceOnUse" x1="859.577" y1="1033.44" x2="947.491" y2="810.006">
		<stop class="stop0" offset="0" stop-opacity="1" stop-color="rgb(229,219,159)"/>
		<stop class="stop1" offset="1" stop-opacity="1" stop-color="rgb(255,252,219)"/>
	</linearGradient>
	<linearGradient id="Gradient3" gradientUnits="userSpaceOnUse" x1="1168.69" y1="428.564" x2="1391.51" y2="399.999">
		<stop class="stop0" offset="0" stop-opacity="1" stop-color="rgb(253,246,189)"/>
		<stop class="stop1" offset="1" stop-opacity="1" stop-color="rgb(255,253,237)"/>
	</linearGradient>
	<linearGradient id="Gradient4" gradientUnits="userSpaceOnUse" x1="1121.24" y1="937.943" x2="1122.17" y2="954.041">
		<stop class="stop0" offset="0" stop-opacity="1" stop-color="rgb(217,140,116)"/>
		<stop class="stop1" offset="1" stop-opacity="1" stop-color="rgb(240,175,141)"/>
	</linearGradient>
	<linearGradient id="Gradient5" gradientUnits="userSpaceOnUse" x1="283.732" y1="534.32" x2="993.927" y2="455.21">
		<stop class="stop0" offset="0" stop-opacity="1" stop-color="rgb(244,236,185)"/>
		<stop class="stop1" offset="1" stop-opacity="1" stop-color="rgb(255,255,232)"/>
	</linearGradient>
	<linearGradient id="Gradient6" gradientUnits="userSpaceOnUse" x1="876.115" y1="376.336" x2="827.009" y2="57.4954">
		<stop class="stop0" offset="0" stop-opacity="1" stop-color="rgb(236,221,154)"/>
		<stop class="stop1" offset="1" stop-opacity="1" stop-color="rgb(244,240,218)"/>
	</linearGradient>
	<linearGradient id="Gradient7" gradientUnits="userSpaceOnUse" x1="679.531" y1="68.6009" x2="741.786" y2="1276.65">
		<stop class="stop0" offset="0" stop-opacity="1" stop-color="rgb(0,0,0)"/>
		<stop class="stop1" offset="1" stop-opacity="1" stop-color="rgb(43,40,40)"/>
	</linearGradient>
</defs>
<path transform="translate(0,0)" fill="url(#Gradient7)" d="M 742.776 64.5775 C 756.134 63.6121 773.76 63.895 787.342 63.8542 C 816.665 63.5562 845.991 64.1003 875.282 65.4859 C 986.84 70.7119 1087.1 80.3552 1194.76 112.121 C 1212.68 117.411 1246.23 127.293 1263.59 135.143 C 1295.82 149.71 1357.52 181.379 1376.57 213.174 C 1385.96 231.768 1393.9 258.962 1394.2 279.871 C 1395.41 366.312 1389.93 453.2 1386.73 539.596 C 1385.93 561.215 1396.39 583.544 1393.71 607.045 C 1391.66 625.03 1387.46 631.499 1382.89 647.665 C 1385.46 655.095 1388.4 662.121 1388.5 670.031 C 1388.68 684.818 1378.79 697.027 1377.28 710.307 C 1374.18 737.432 1374.66 766.779 1370.75 793.809 C 1376.54 800.914 1387.24 803.26 1391.34 814.749 C 1396.82 830.097 1387.96 846.469 1381.72 860.192 C 1398 895.762 1378.36 911.762 1355.25 936.852 C 1353 960.519 1349.13 984.005 1343.67 1007.14 C 1324.5 1092.95 1271.92 1167.57 1197.57 1214.5 C 1131.41 1255.9 1016.22 1264.04 938.931 1268.68 C 870.386 1272.8 785.057 1263.63 717.778 1248.26 C 695.845 1243.78 680.14 1238.72 658.711 1232.44 C 624.616 1222.81 590.869 1211.98 557.533 1199.98 C 465.685 1167.66 379.415 1136.75 339.928 1039.33 C 260.569 1053.65 210.962 1039.8 149.086 988.494 C 59.4201 914.144 19.4809 802.502 8.90566 689.422 C 0.0131867 594.336 12.6813 489.8 56.6128 404.315 C 90.7591 339.362 139.479 285.785 210.978 262.393 C 235.591 254.51 260.864 248.86 286.49 245.51 C 291.204 244.917 310.206 242.894 310.911 240.794 C 315.672 226.755 310.119 202.615 323.414 191.632 C 409.253 120.72 525.331 80.937 635.443 71.3348 C 673.629 68.0048 707.113 67.2073 742.776 64.5775 z M 212.749 851.236 C 242.532 886.055 265.283 893.988 307.629 908.814 C 297.744 820.913 293.74 732.45 295.642 644.015 C 295.87 632.773 300.185 609.998 299.076 599.313 C 296.71 576.516 310.26 373.122 306.538 366.497 L 304.439 366.233 C 272.13 372.934 241.41 379.44 215.419 401.539 C 127.51 476.283 127.997 599.385 148.686 703.512 C 159.162 756.238 180.049 808.339 212.749 851.236 z M 1349.6 428.946 C 1354.11 406.185 1361.85 352.356 1350.25 332.07 L 1348.99 331.978 C 1345.66 338.219 1346.99 393.874 1347.13 404.599 C 1347.72 410.569 1347.31 425.247 1349.6 428.946 z"/>
<path transform="translate(0,0)" fill="url(#Gradient6)" d="M 746.58 79.4399 C 755.539 78.924 764.898 78.7942 773.949 78.7997 C 919.018 78.8881 1065.01 88.39 1204.47 131.156 C 1246.07 143.913 1278.67 156.474 1315.37 180.192 C 1350.3 202.763 1365.28 212.335 1375.05 254.711 C 1341.71 287.597 1314.88 293.903 1271.46 307.778 C 1172.45 339.425 1068.15 349.128 964.63 350.033 C 932.944 350.084 899.26 350.662 867.712 349.783 C 797.734 347.58 727.941 341.359 658.678 331.151 C 580.473 319.189 509.294 301.356 437.248 268.039 C 421.122 260.582 339.058 220.868 333.415 206.275 C 335.136 195.259 379.414 170.503 390.921 163.473 C 502.466 95.3262 619.444 85.5909 746.58 79.4399 z"/>
<path transform="translate(0,0)" fill="rgb(64,44,37)" d="M 556.922 288.691 C 513.654 278.941 400.811 251.123 378.075 215.407 C 375.258 210.983 373.749 206.437 374.949 201.159 C 376.378 194.872 381.113 189.531 386.557 186.282 C 403.618 176.102 471.432 160.182 493.081 155.484 C 517.885 150.103 542.648 144.705 567.744 140.828 C 712.578 118.45 864.337 123.52 1009.47 140.559 C 1058.26 146.287 1106.98 152.082 1155.2 161.642 C 1183.95 167.343 1212.48 174.869 1240.78 182.467 C 1271.83 190.804 1339.94 204.888 1356.66 234.338 C 1359.21 238.829 1359.5 243.304 1357.93 248.177 C 1354.86 257.666 1345.06 263.935 1336.54 267.983 C 1303.32 283.777 1264.98 291.477 1229.76 301.686 L 1218.85 304.363 C 1180.76 314.254 1152.28 318.397 1113.81 322.484 C 1108.04 323.151 1101.34 323.907 1095.52 323.762 C 1061.47 328.717 1022.57 328.33 988.012 330.27 C 842.336 338.445 704.03 323.495 561.887 289.368 L 556.922 288.691 z"/>
<path transform="translate(0,0)" fill="rgb(90,79,75)" d="M 1218.85 304.363 C 1212.91 297.018 1209.83 291.398 1204.54 284.118 C 1192.77 267.985 1177.04 255.159 1158.87 246.882 C 1149.87 242.777 1136.38 239.942 1128.57 235.361 L 1128.56 234.197 C 1128.96 234.125 1129.35 234.054 1129.74 233.982 C 1170.88 235.624 1207.44 268.377 1228.83 301.198 C 1229.14 301.361 1229.45 301.523 1229.76 301.686 L 1218.85 304.363 z"/>
<path transform="translate(0,0)" fill="rgb(90,79,75)" d="M 1105.21 313.967 C 1105.42 313.768 1105.63 313.572 1105.83 313.369 C 1123.83 295.421 1119.06 276.363 1122.44 272.136 L 1124.32 272.904 C 1127.33 280.439 1121.1 303.593 1117.92 311.042 C 1117.15 312.911 1116.21 314.71 1115.12 316.417 C 1110.86 315.395 1109.78 316.397 1105.21 313.967 z"/>
<path transform="translate(0,0)" fill="rgb(90,79,75)" d="M 558.227 238.738 L 560.155 241.282 C 554.492 253.733 554.168 264.945 558.642 277.891 C 560.394 282.959 561.874 283.588 561.887 289.368 L 556.922 288.691 C 547.738 271.215 548.865 256.038 558.227 238.738 z"/>
<path transform="translate(0,0)" fill="rgb(90,74,49)" d="M 1095.52 323.762 C 1098.59 318.832 1100.11 317.006 1105.21 313.967 C 1109.78 316.397 1110.86 315.395 1115.12 316.417 L 1113.81 322.484 C 1108.04 323.151 1101.34 323.907 1095.52 323.762 z"/>
<path transform="translate(0,0)" fill="rgb(48,44,45)" d="M 558.227 238.738 C 560.364 235.616 560.964 233.577 563.971 232.21 C 564.254 235.598 562.183 238.462 560.155 241.282 L 558.227 238.738 z"/>
<path transform="translate(0,0)" fill="rgb(90,79,75)" d="M 957.614 163.379 C 959.892 163.037 968.79 162.897 971.212 163.028 C 1006.88 164.955 1049.66 165.715 1084.65 172.178 C 1137.29 181.903 1223.18 202.734 1260.95 241.484 C 1253.67 239.282 1251.21 238.24 1244.46 234.72 C 1183.45 197.274 1093.49 180.102 1023.04 174.499 C 992.353 172.059 961.295 171.942 930.581 168.915 C 937.534 166.381 950.228 164.343 957.614 163.379 z"/>
<path transform="translate(0,0)" fill="rgb(90,79,75)" d="M 848.849 219.447 C 897.691 218.223 1011.81 224.19 1039.93 269.105 C 1039.37 275.661 1039.47 280.656 1034.74 285.573 L 1033.11 285.072 C 1031.58 281.295 1032.55 276.933 1032.99 272.693 C 1027.73 263.756 1024.9 260.49 1015.42 255.645 C 991.155 243.245 964.237 234.948 937.232 231.419 C 890.56 222.548 819.841 227.346 772.428 231.757 C 757.846 233.114 724.721 240.985 709.892 244.732 L 709.003 243.425 C 718.236 226.155 827.122 220.297 848.849 219.447 z"/>
<path transform="translate(0,0)" fill="rgb(90,79,75)" d="M 643.012 174.447 C 647.426 174.099 660.795 173.675 662.795 177.841 C 657.128 181.154 630.449 181.346 622.111 182.667 C 614.975 183.797 606.215 185.084 598.836 186.391 C 555.525 194.187 513.438 207.686 473.672 226.537 C 465.92 230.772 460.698 233.778 452.38 236.791 C 501.798 196.879 580.805 179.036 643.012 174.447 z"/>
<path transform="translate(0,0)" fill="rgb(90,79,75)" d="M 635.918 223.631 C 638.817 225.697 640.904 239.04 643.295 245.04 C 657.419 280.476 681 291.494 714.586 303.205 C 723.769 306.408 737.659 309.641 745.906 313.265 L 746.289 315.118 C 741.159 316.314 735.596 315.852 730.405 315.543 C 692.029 313.252 652.132 284.982 639.472 248.514 C 637.419 242.6 634.477 229.885 635.918 223.631 z"/>
<path transform="translate(0,0)" fill="rgb(254,250,217)" d="M 638.923 109.479 C 643.648 108.891 643.687 108.225 647.646 106.144 L 642.428 104.668 L 643.054 103.828 C 678.522 100.978 715.041 94.0668 750.472 93.0772 C 777.658 92.318 807.411 96.2679 835.202 94.9915 C 850.534 94.2874 879.371 93.5162 893.378 97.5481 L 894.253 98.732 C 890.235 100.257 884.348 100.249 881.96 101.511 C 905.092 102.822 931.813 102.535 955.168 102.73 C 962.89 102.795 972.939 99.1406 977.428 99.3773 C 991.522 100.121 1007.22 102.677 1021.35 104.347 C 1063.48 109.325 1108.32 113.834 1149.12 125.417 C 1164.69 130.003 1179.9 135.757 1194.62 142.632 C 1195.44 143.013 1202.47 146.263 1202.42 146.277 C 1210.03 144.216 1210.29 145.677 1216.89 151.143 L 1216.23 151.818 C 1211.55 150.816 1209.23 150.119 1204.45 150.481 L 1215.26 158.341 C 1188.84 151.081 1163.47 139.567 1136.56 133.64 C 1082.25 121.679 1026.58 117.882 971.965 107.858 C 967.711 107.077 967.028 106.183 964.491 103.028 L 963.005 104.6 C 957.117 102.77 950.516 105.713 944.967 104.859 C 928.773 102.367 912.231 104.522 895.875 103.78 C 874.921 104.128 852.923 102.351 832.07 103.495 C 792.975 105.641 753.607 109.023 714.548 111.433 C 700.501 112.299 654.607 118.148 644.021 111.836 L 638.923 109.479 z"/>
<path transform="translate(0,0)" fill="rgb(0,0,0)" d="M 964.491 103.028 C 981.759 97.5939 1120.48 118.368 1145.44 126.338 C 1159.67 130.884 1182.5 138.67 1196.94 146.243 C 1199.49 147.583 1201.99 148.996 1204.45 150.481 L 1215.26 158.341 C 1188.84 151.081 1163.47 139.567 1136.56 133.64 C 1082.25 121.679 1026.58 117.882 971.965 107.858 C 967.711 107.077 967.028 106.183 964.491 103.028 z"/>
<path transform="translate(0,0)" fill="rgb(0,0,0)" d="M 439.755 161.257 C 440.186 160.871 440.622 160.492 441.064 160.119 C 473.919 132.51 555.24 112.329 598.235 108.811 C 612.139 107.673 625.207 108.331 638.923 109.479 L 644.021 111.836 C 633.444 118.806 595.656 120.701 580.841 122.659 C 571.305 123.962 561.837 125.72 552.47 127.929 C 530.033 133.137 507.834 139.32 485.936 146.459 C 473.85 150.442 450.993 159.753 439.755 161.257 z"/>
<path transform="translate(0,0)" fill="url(#Gradient5)" d="M 328.449 225.589 C 393.41 270.638 492.594 312.905 569.767 330.745 C 656.093 350.7 763.741 361.471 852.388 365.213 C 857.513 365.163 879.002 364.245 881.796 366.539 C 878.885 368.663 874.709 368.919 870.988 369.552 C 842.173 376.311 813.829 387.645 794.9 411.37 C 839.516 383.124 901.184 367.902 953.93 378.341 C 968.9 381.304 979.037 388.207 988.687 399.773 C 1001.07 415.337 1004.63 428.01 1011.09 446.422 C 997.139 440.048 982.666 434.887 967.831 430.996 C 906.198 418.244 836.265 425.126 785.763 465.771 C 774.49 461.401 765.942 473.347 756.86 478.325 C 732.532 491.659 722.076 515.943 711.989 541.194 C 699.634 572.124 697.352 641.396 710.301 670.874 C 717.545 695.019 719.942 708.715 737.291 729.381 C 753.917 749.186 771.047 758.149 793.282 770.152 C 751.039 759.838 711.219 740.988 678.392 712.149 C 672.009 706.541 650.593 676.163 644.344 677.033 C 643.691 682.579 656.02 700.215 659.659 705.814 C 637.338 697.569 612.96 700.726 589.732 701.515 C 552.624 702.792 519.355 708.09 488.172 729.207 C 456.454 750.686 434.066 784.686 402.826 805.002 C 378.915 820.552 342.731 827.549 315.256 834.102 C 309.529 725.883 313.254 625.778 317.282 518.003 L 328.449 225.589 z"/>
<path transform="translate(0,0)" fill="rgb(254,250,217)" d="M 988.687 399.773 C 1001.07 415.337 1004.63 428.01 1011.09 446.422 C 997.139 440.048 982.666 434.887 967.831 430.996 C 971.028 429.944 974.05 430.401 977.328 430.77 C 986.691 424.382 987.383 410.084 988.601 400.423 L 988.687 399.773 z"/>
<path transform="translate(0,0)" fill="rgb(213,212,212)" d="M 852.388 365.213 C 857.513 365.163 879.002 364.245 881.796 366.539 C 878.885 368.663 874.709 368.919 870.988 369.552 C 866.514 364.9 859.93 367.509 852.388 365.213 z"/>
<path transform="translate(0,0)" fill="rgb(254,250,217)" d="M 447.462 398.697 C 450.718 399.439 450.959 399.449 453.767 401.163 C 459.883 412.454 450.486 462.296 449.713 476.252 C 446.166 540.259 453.25 604.308 450.108 668.173 C 449.821 674.01 451.094 698.523 447.892 700.49 C 444.86 698.701 444.468 696.794 443.013 693.508 C 434.142 676.446 428.312 657.97 425.784 638.906 C 423.57 622.645 423.559 602.13 423.548 585.737 C 423.709 543.942 425.774 502.177 429.734 460.57 C 431.162 443.842 431.106 407.971 447.462 398.697 z"/>
<path transform="translate(0,0)" fill="rgb(0,0,0)" d="M 376.25 316.755 L 377.212 317.546 C 374.966 328.534 374.134 337.141 373.464 348.338 C 367.637 445.783 362.659 544.034 366.591 641.615 L 370.504 724.38 C 370.962 733.504 373.225 767.738 371.75 774.009 L 370.786 773.849 L 369.849 771.027 C 366.305 759.758 363.768 748.197 362.268 736.48 C 346.065 616.757 355.053 488.56 365.059 368.399 C 366.157 355.224 368.495 326.926 376.25 316.755 z"/>
<path transform="translate(0,0)" fill="rgb(254,250,217)" d="M 263.02 1028.43 C 205.891 1019.65 155.387 979.521 118.982 936.349 C 106.359 921.379 92.5452 904.065 82.6689 886.729 C 56.3478 840.528 41.2971 786.949 30.5649 735.09 C 10.6989 617.249 22.0027 481.352 89.6743 379.899 C 133.59 314.061 175.798 283.498 253.74 266.986 C 273.088 262.888 292.104 260.927 311.237 257.356 C 311.123 265.551 310.881 273.744 310.513 281.932 L 307.91 349.426 C 242.953 362.626 205.626 376.79 166.465 433.898 C 111.331 514.298 115.595 613.939 133.437 706.056 C 146.247 772.197 180.412 856.323 238.847 895.542 C 249.556 902.512 261.411 908.305 273.219 913.121 C 285.511 917.578 297.828 921.966 310.169 926.285 C 315.559 958.158 321.822 995.309 333.756 1025.5 C 325.485 1026.27 318.427 1027.46 310.251 1028.84 C 294.462 1031.09 278.774 1030.32 263.02 1028.43 z"/>
<path transform="translate(0,0)" fill="rgb(229,221,162)" d="M 263.02 1028.43 C 205.891 1019.65 155.387 979.521 118.982 936.349 C 106.359 921.379 92.5452 904.065 82.6689 886.729 C 56.3478 840.528 41.2971 786.949 30.5649 735.09 C 10.6989 617.249 22.0027 481.352 89.6743 379.899 C 133.59 314.061 175.798 283.498 253.74 266.986 C 273.088 262.888 292.104 260.927 311.237 257.356 C 311.123 265.551 310.881 273.744 310.513 281.932 C 222.819 281.575 142.737 361.206 105.469 436.506 C 72.0766 503.977 54.7949 572.501 56.0755 648.156 C 57.1342 710.697 64.8519 781.857 85.7605 841.529 C 115.53 918.974 178.942 984.307 253.382 1019.38 C 257.293 1021.22 260.288 1025.09 263.02 1028.43 z"/>
<path transform="translate(0,0)" fill="rgb(229,221,162)" d="M 273.219 913.121 C 285.511 917.578 297.828 921.966 310.169 926.285 C 315.559 958.158 321.822 995.309 333.756 1025.5 C 325.485 1026.27 318.427 1027.46 310.251 1028.84 C 307.045 1024.68 303.92 1020.45 300.88 1016.16 C 280.927 988.024 267.302 947.586 273.219 913.121 z"/>
<path transform="translate(0,0)" fill="rgb(251,251,251)" d="M 827.444 455.53 C 878.908 432.759 937.28 431.223 989.871 451.255 C 1008.59 458.542 1021.88 465.366 1036.93 479.112 C 1078.46 516.826 1097.71 570.738 1094.4 626.143 C 1092 666.292 1057.7 700.49 1022.29 715.258 C 976.789 734.232 904.86 735.622 857.501 723.406 C 840.742 720.593 828.743 717.973 813.203 711.53 C 788.407 701.251 748.622 670.7 739.678 645.493 C 726.815 609.243 733.003 566.747 748.159 532.017 C 761.735 500.91 796.345 467.692 827.444 455.53 z"/>
<path transform="translate(0,0)" fill="rgb(0,0,0)" d="M 801.981 634.502 C 806.663 592.185 820.829 537.927 850.35 504.787 C 860.367 493.542 874.903 489.779 889.819 491.41 C 906.341 493.098 921.454 501.466 931.652 514.575 C 979.906 575.588 913.532 694.502 836.207 686.48 C 833.504 686.2 829.504 685.084 826.833 684.293 C 803.646 670.423 801.799 660.701 801.981 634.502 z"/>
<path transform="translate(0,0)" fill="rgb(251,251,251)" d="M 897.747 577.213 C 941.616 581.034 894.41 628.548 885.199 640.971 C 874.901 642.34 869.031 635.118 867.355 625.783 C 865.073 613.756 867.839 601.318 875.006 591.393 C 881.259 582.801 887.473 578.779 897.747 577.213 z"/>
<path transform="translate(0,0)" fill="rgb(213,212,212)" d="M 827.444 455.53 L 828.655 459.997 C 775.591 520.89 766.706 564.267 797.345 640.096 L 798.83 640.887 C 801.226 638.939 801.167 637.693 801.981 634.502 C 801.799 660.701 803.646 670.423 826.833 684.293 C 825.612 697.637 855.065 712.164 857.501 723.406 C 840.742 720.593 828.743 717.973 813.203 711.53 C 788.407 701.251 748.622 670.7 739.678 645.493 C 726.815 609.243 733.003 566.747 748.159 532.017 C 761.735 500.91 796.345 467.692 827.444 455.53 z"/>
<path transform="translate(0,0)" fill="rgb(163,90,53)" d="M 529.882 804.5 C 530.874 801.143 531.841 797.733 533.046 794.445 C 534.38 790.805 537.011 787.712 540.676 786.289 C 564.254 777.135 609.446 801.108 632.728 810.384 C 778.793 868.578 893.854 891.96 1051.1 889.493 C 1105.47 888.64 1163.2 887.084 1215.73 871.976 C 1237.31 865.772 1257.53 857.03 1278.09 848.168 C 1294.29 842.341 1340.53 815.427 1357.55 805.896 C 1377.54 817.387 1380.87 819.08 1373.61 841.348 C 1349.28 900.642 1200.2 923.936 1144.51 929.015 C 1052.03 937.452 952.123 940.371 860.523 921.669 C 769.789 903.144 673.068 876.124 588.554 837.817 C 582.249 834.959 575.083 828.253 568.662 826.623 C 558.654 848.133 699.849 892.877 716.989 898.315 C 820.733 931.233 917.91 948.663 1027.38 949.195 C 1095.18 948.882 1150.54 942.95 1217.26 932.694 C 1219.69 931.442 1232.34 929.334 1235.69 928.741 C 1238.13 927.641 1253.6 924.098 1257.09 923.2 C 1271.25 919.508 1285.32 915.447 1299.28 911.02 C 1316.45 905.431 1333 894.914 1349.31 886.927 C 1356.41 881.766 1363.46 876.519 1370.84 871.767 C 1376.14 895.768 1357.64 916.346 1338.23 927.831 C 1327.49 940.924 1262.65 955.319 1245.88 959.565 C 1180.7 976.074 1115.34 987.217 1047.99 989.842 C 920.77 994.801 718.44 962.649 609.308 897.386 C 575.32 877.06 539.808 843.964 529.882 804.5 z"/>
<path transform="translate(0,0)" fill="url(#Gradient4)" d="M 1217.26 932.694 C 1219.52 934.41 1222.95 933.247 1226.6 932.862 L 1226.06 934.059 C 1220.83 935.511 1217.51 934.5 1213.01 938.289 C 1172.38 948.551 1053.92 967.993 1016.15 953.101 L 1015.25 951.671 C 1017.89 949.257 1023.55 949.462 1027.38 949.195 C 1095.18 948.882 1150.54 942.95 1217.26 932.694 z"/>
<path transform="translate(0,0)" fill="rgb(222,158,128)" d="M 1357.55 805.896 C 1377.54 817.387 1380.87 819.08 1373.61 841.348 C 1373.47 841.209 1373.32 841.074 1373.18 840.932 C 1366.23 833.89 1366.61 822.706 1353.8 822.266 C 1347.54 822.051 1340.97 823.81 1335.2 826.125 C 1327.78 829.106 1283.66 855.323 1279.11 849.904 C 1278.75 849.483 1278.36 848.672 1278.09 848.168 C 1294.29 842.341 1340.53 815.427 1357.55 805.896 z"/>
<path transform="translate(0,0)" fill="rgb(222,158,128)" d="M 1349.31 886.927 C 1356.41 881.766 1363.46 876.519 1370.84 871.767 C 1376.14 895.768 1357.64 916.346 1338.23 927.831 C 1337.3 919.87 1351.74 900.167 1349.31 886.927 z"/>
<path transform="translate(0,0)" fill="rgb(195,115,81)" d="M 1217.26 932.694 C 1219.69 931.442 1232.34 929.334 1235.69 928.741 L 1235.54 929.884 L 1234.51 930.556 C 1232.71 935.919 1218.05 938.827 1213.01 938.289 C 1217.51 934.5 1220.83 935.511 1226.06 934.059 L 1226.6 932.862 C 1222.95 933.247 1219.52 934.41 1217.26 932.694 z"/>
<path transform="translate(0,0)" fill="rgb(251,251,251)" d="M 1095.22 458.623 C 1119.9 438.109 1158.86 432.344 1190.36 435.398 C 1237.17 439.936 1329.85 500.284 1359.68 537.121 C 1372.83 553.361 1376.45 571.808 1379.41 591.87 C 1357.4 625.015 1338.39 632.837 1302.37 647.976 C 1277.42 658.466 1255.22 663.059 1228.48 666.491 C 1188.13 675.314 1140.15 669.253 1101.51 655.109 C 1106.46 638.153 1107.59 626.655 1107.89 609.033 C 1107.47 605.928 1107.24 602.04 1107.01 598.863 C 1105.18 573.049 1098.18 549.873 1088.31 526.1 C 1083.13 517.077 1076 504.301 1069.77 496.383 C 1076.86 480.911 1081.96 469.804 1095.22 458.623 z"/>
<path transform="translate(0,0)" fill="rgb(213,212,212)" d="M 1107.89 609.033 C 1117.78 610.965 1127.56 626.925 1136.57 633.028 C 1154.05 644.865 1172.42 652.663 1192.83 657.882 C 1202.34 660.312 1223.58 660.081 1228.48 666.491 C 1188.13 675.314 1140.15 669.253 1101.51 655.109 C 1106.46 638.153 1107.59 626.655 1107.89 609.033 z"/>
<path transform="translate(0,0)" fill="rgb(213,212,212)" d="M 1095.22 458.623 C 1096.81 461.991 1095.61 470.59 1094.52 473.992 C 1091.19 484.346 1093.54 519.18 1088.31 526.1 C 1083.13 517.077 1076 504.301 1069.77 496.383 C 1076.86 480.911 1081.96 469.804 1095.22 458.623 z"/>
<path transform="translate(0,0)" fill="rgb(0,0,0)" d="M 1165.63 465.221 C 1198.29 463.409 1221.26 504.52 1237.37 527.211 C 1247.66 541.7 1260.69 547.269 1266.51 566.562 C 1277.27 602.198 1260.21 622.969 1227.27 633.473 C 1097.46 661.769 1108.33 476.735 1165.63 465.221 z"/>
<path transform="translate(0,0)" fill="rgb(251,251,251)" d="M 1204.82 549.243 C 1229.75 546.378 1237.18 587.25 1212.24 588.962 C 1195.88 590.721 1191.23 588.241 1186.71 572.153 C 1189.43 559.137 1190.33 551.956 1204.82 549.243 z"/>
<path transform="translate(0,0)" fill="url(#Gradient3)" d="M 1377.15 274.779 C 1377.28 274.845 1377.44 274.875 1377.54 274.979 C 1385.7 283.175 1372.5 499.908 1371.96 531.443 C 1356.98 513.211 1336.38 500.171 1320.2 483.817 C 1300.54 463.952 1280.78 446.231 1260.42 427.271 C 1228.99 396.973 1191.28 359.326 1146.77 352.082 C 1203.66 345.98 1337.81 313.211 1377.15 274.779 z M 1349.6 428.946 C 1354.11 406.185 1361.85 352.356 1350.25 332.07 L 1348.99 331.978 C 1345.66 338.219 1346.99 393.874 1347.13 404.599 C 1347.72 410.569 1347.31 425.247 1349.6 428.946 z"/>
<path transform="translate(0,0)" fill="rgb(0,0,0)" fill-opacity="0.988235" d="M 1347.13 404.599 C 1346.99 393.874 1345.66 338.219 1348.99 331.978 L 1350.25 332.07 C 1361.85 352.356 1354.11 406.185 1349.6 428.946 C 1347.31 425.247 1347.72 410.569 1347.13 404.599 z"/>
<path transform="translate(0,0)" fill="rgb(48,44,45)" d="M 1347.13 404.599 C 1347.72 410.569 1347.31 425.247 1349.6 428.946 C 1349.46 432.374 1348.18 439.533 1347.62 443.215 C 1346.45 431.712 1346.92 416.192 1347.13 404.599 z"/>
<path transform="translate(0,0)" fill="url(#Gradient2)" d="M 517.134 816.451 C 520.259 818.35 528.206 837.44 532.355 843.357 C 567.443 893.401 614.769 920.087 670.771 941.36 C 729.439 963.052 790.142 978.782 851.961 988.313 C 987.414 1010.44 1104.36 1009.28 1238.39 975.11 C 1263.24 968.777 1303.42 959.727 1325.8 949.661 C 1315.8 960.967 1308.8 969.116 1297.34 978.936 C 1264.2 1006.48 1208.5 1020.11 1166.17 1023.05 C 1161.09 995.309 1142.09 999.706 1118.57 1003.38 C 1088.13 1008.14 1044.32 997.602 1036.04 1035.02 C 1022.32 1034.92 1007.77 1033.04 993.997 1032.31 C 937.921 1029.36 883.328 1019.87 828.606 1007.7 C 733.272 986.618 636.708 958.999 558.747 897.494 C 534.476 878.347 509.231 849.599 517.134 816.451 z"/>
<path transform="translate(0,0)" fill="rgb(229,221,162)" d="M 710.301 670.874 C 697.352 641.396 699.634 572.124 711.989 541.194 C 722.076 515.943 732.532 491.659 756.86 478.325 C 765.942 473.347 774.49 461.401 785.763 465.771 C 755.851 492.69 739.707 510.639 727.937 550.243 C 715.286 591.719 714.567 644.326 745.922 678.045 C 776.114 710.515 807.411 727.264 850.734 735.603 C 903.29 745.719 958.433 748.273 1010.39 732.973 C 994.008 746.098 965.918 761.366 944.215 765.336 C 873.107 778.344 789.479 772.588 738.926 714.364 C 730.804 705.011 718.712 682.534 713.883 670.892 L 711.906 670.08 L 710.301 670.874 z"/>
<path transform="translate(0,0)" fill="url(#Gradient1)" d="M 1125.31 366.321 C 1152.93 362.133 1171.04 369.207 1193.17 385.79 C 1219.08 405.217 1242.39 427.065 1265.41 449.728 C 1225.1 431.399 1200.53 416.047 1154.01 423.664 C 1130.48 427.516 1119.06 428.481 1097.08 440.737 C 1078.11 454.174 1070.12 465.523 1060.7 486.129 C 1052.28 475.451 1038.12 461.468 1026.46 454.746 C 1032.93 446.587 1040.05 431.748 1046.65 422.999 C 1065.83 397.539 1093.99 373.822 1125.31 366.321 z"/>
<path transform="translate(0,0)" fill="rgb(229,221,162)" d="M 1026.46 454.746 C 1032.93 446.587 1040.05 431.748 1046.65 422.999 C 1065.83 397.539 1093.99 373.822 1125.31 366.321 C 1125.52 367.674 1125.94 370.944 1125.3 371.988 C 1119.61 381.333 1088.82 433.374 1097.08 440.737 C 1078.11 454.174 1070.12 465.523 1060.7 486.129 C 1052.28 475.451 1038.12 461.468 1026.46 454.746 z"/>
<path transform="translate(0,0)" fill="rgb(254,250,217)" d="M 1077.76 690.869 C 1081.64 694.575 1083.8 705.533 1082.11 710.613 C 1080.89 712.097 1081.06 712.116 1080.89 714.07 C 1082.54 717.332 1087.45 720.306 1090.68 722.023 C 1120.07 737.643 1143 761.364 1168.62 781.811 C 1096.19 792.208 1013.95 790.531 941.119 782.462 C 976.254 770 1013.29 760.259 1031.58 725.526 C 1052.4 714.958 1061.63 707.16 1077.76 690.869 z"/>
<path transform="translate(0,0)" fill="rgb(229,221,162)" d="M 1077.76 690.869 C 1084.75 682.883 1091.07 675.699 1096.32 666.401 C 1131.34 683.15 1175.31 684.558 1213.2 681.198 C 1213.65 689.373 1214.2 689.878 1219.09 696.58 C 1199.6 699.227 1182.76 699.034 1163.25 697.051 C 1160.37 696.758 1159.21 697.562 1157.17 699.249 C 1155.98 702.048 1155.86 701.922 1156.52 704.797 C 1164.38 716.171 1209.99 710.808 1222.53 709.373 C 1220.4 714.893 1216.93 721.416 1219.26 726.745 L 1221.73 728.785 C 1209.22 734.639 1199.46 741.776 1189.61 751.3 C 1183.03 757.661 1180.63 759.731 1171.9 762.486 C 1166.65 759.373 1160.21 753.813 1155.17 750.054 C 1130.91 731.923 1113.35 714.813 1082.11 710.613 C 1083.8 705.533 1081.64 694.575 1077.76 690.869 z"/>
<path transform="translate(0,0)" fill="rgb(254,250,217)" d="M 1359.69 703.13 L 1361.47 703.218 C 1362.5 706.306 1360.84 729.454 1360.59 734.112 C 1309.85 757.723 1243.21 772.195 1187.33 779.301 C 1186.68 779.435 1186.09 779.146 1185.32 778.941 C 1185.19 777.227 1185.3 776.457 1186.24 774.912 C 1205.97 742.462 1243.62 734.794 1277.42 725.649 C 1304.85 718.23 1332.63 711.537 1359.69 703.13 z"/>
<path transform="translate(0,0)" fill="rgb(90,79,75)" d="M 1338.78 948.187 C 1327.13 1018.16 1315.4 1071.28 1269.36 1128.13 C 1259.8 1139.93 1239.44 1158.26 1232.94 1166.84 C 1231.43 1166.77 1230.91 1166.37 1229.4 1165.77 C 1256.33 1127.26 1277.03 1084.76 1290.74 1039.82 C 1295.17 1025.76 1302.35 997.992 1307.12 986.147 C 1308.82 981.933 1331.82 958.88 1338.78 948.187 z"/>
<path transform="translate(0,0)" fill="rgb(254,250,217)" d="M 1100.64 358.448 C 1102.83 358.03 1102.74 358.152 1104.93 358.755 C 1102.27 362.142 1088.57 367.66 1084.16 370.665 C 1055.65 390.071 1037.33 408.268 1022.66 438.894 C 1021.42 423.475 1015.06 410.505 1006.39 398.01 C 990.727 377.624 981.007 373.254 957.587 365.238 C 1005.35 365.377 1053.1 363.111 1100.64 358.448 z"/>
<path transform="translate(0,0)" fill="rgb(90,79,75)" d="M 610.907 710.448 C 643.132 709.349 662.443 713.429 687.49 735.669 C 692.094 739.756 698.314 742.672 702.706 747.58 C 698.065 750.526 660.632 729.487 650.964 728.341 C 620.574 724.739 581.216 723.433 551.35 729.836 C 512.739 740.175 499.46 747.37 463.9 764.541 C 464.602 763.603 465.344 762.695 466.124 761.82 C 508.733 714.177 552.265 714.054 610.907 710.448 z"/>
<path transform="translate(0,0)" fill="rgb(254,250,217)" d="M 1222.53 709.373 C 1260.93 703.001 1306.69 693.367 1341.59 675.319 C 1350.95 670.477 1361.78 662.602 1370.62 656.511 C 1373.07 663.159 1376.55 671.61 1373.74 678.752 C 1371.49 684.486 1357.91 689.412 1352.05 691.166 C 1323.08 699.839 1293.24 706.739 1264.1 715.004 C 1250.43 718.882 1234.52 722.649 1221.73 728.785 L 1219.26 726.745 C 1216.93 721.416 1220.4 714.893 1222.53 709.373 z"/>
<path transform="translate(0,0)" fill="rgb(254,250,217)" d="M 1213.2 681.198 C 1264.95 677.287 1344.83 654.871 1379.53 614.598 C 1377.93 619.139 1373.92 630.842 1371.79 634.418 C 1364.04 647.407 1343.33 660.949 1329.45 667.279 C 1299.21 681.063 1252.05 692.615 1219.09 696.58 C 1214.2 689.878 1213.65 689.373 1213.2 681.198 z"/>
<path transform="translate(0,0)" fill="rgb(90,79,75)" d="M 1357.35 747.151 L 1358.2 747.333 C 1359.49 751.749 1356.06 786.733 1355.41 793.64 C 1347.42 796.481 1336.52 802.516 1328.69 806.569 C 1327.4 805.154 1328.91 764.965 1328 758.469 C 1334.15 756.981 1350.32 749.892 1357.35 747.151 z"/>
<path transform="translate(0,0)" fill="rgb(90,79,75)" d="M 1137.2 1026.3 C 1154.76 1030 1156.68 1064.36 1150.51 1076.36 C 1146.9 1077.53 1142.1 1078.64 1138.5 1077.22 C 1137.23 1069.67 1136.84 1035.2 1137.2 1026.3 z"/>
<path transform="translate(0,0)" fill="rgb(48,44,45)" d="M 542.483 770.162 C 574.441 768.266 589.816 777.377 618.004 788.474 C 683.968 814.442 751.35 840.472 821.005 854.515 C 831.565 856.643 840.715 860.15 851.715 861.151 C 838.79 860.58 822.766 856.648 810.069 853.632 C 783.605 847.366 757.393 840.08 731.492 831.792 C 720.227 828.168 709.033 823.544 697.667 820.024 C 684.547 814.556 661.828 805.892 648.45 801.758 C 617.42 792.171 550.008 749.775 523.433 782.986 C 493.673 820.178 504.14 862.308 537.977 892.577 C 539.526 893.983 539.589 893.606 540.877 895.496 L 540.005 896.004 C 532.004 892.039 512.079 864.119 509.144 854.333 C 499.936 823.625 503.682 818.951 515.384 793.489 C 514.057 789.52 514.182 788.945 515.658 785.847 C 528.333 782.096 520.486 774.639 542.483 770.162 z"/>
<path transform="translate(0,0)" fill="rgb(48,44,45)" d="M 1232.94 1166.84 C 1230.23 1169.96 1223.15 1179.19 1218.77 1177.15 C 1219.47 1173.53 1226.32 1168.46 1229.4 1165.77 C 1230.91 1166.37 1231.43 1166.77 1232.94 1166.84 z"/>
<path transform="translate(0,0)" fill="rgb(0,0,0)" fill-opacity="0.0156863" d="M 52.4385 402.709 L 52.8414 404.665 C 50.8076 409.672 49.6926 413.636 45.641 417.186 L 45.4158 414.987 C 47.4853 410.509 49.0741 406.307 52.4385 402.709 z"/>
</svg>